<?xml version="1.0" encoding="utf-8"?>
<!-- Generator: Adobe Illustrator 18.0.0, SVG Export Plug-In . SVG Version: 6.00 Build 0)  -->
<!DOCTYPE svg PUBLIC "-//W3C//DTD SVG 1.1//EN" "http://www.w3.org/Graphics/SVG/1.1/DTD/svg11.dtd">
<svg version="1.1" id="Layer_1" xmlns="http://www.w3.org/2000/svg" xmlns:xlink="http://www.w3.org/1999/xlink" x="0px" y="0px"
	 viewBox="0 0 2004.9 2044.5" enable-background="new 0 0 2004.9 2044.5" xml:space="preserve">
<path opacity="0.15" fill="none" stroke="#FFFFFF" stroke-width="3" stroke-miterlimit="10" d="M497.9,507.6
	c0,0,253.1-244.5,561.9-234.7"/>
<path opacity="0.15" fill="none" stroke="#FFFFFF" stroke-width="3" stroke-miterlimit="10" d="M494.3,504c0,0,813-681.9,1509.6,20.1
	"/>
<path opacity="0.15" fill="none" stroke="#FFFFFF" stroke-width="3" stroke-miterlimit="10" d="M726.8,597.2c0,0,86.4-60.5,193-73.1"
	/>
<rect x="616.3" y="592.5" opacity="0.15" fill="none" stroke="#FFFFFF" stroke-width="3" stroke-miterlimit="10" width="110.9" height="40.3"/>
<circle opacity="0.15" fill="none" stroke="#FFFFFF" stroke-width="3" stroke-miterlimit="10" cx="599" cy="673.8" r="25.6"/>
<path opacity="0.15" fill="none" stroke="#FFFFFF" stroke-width="3" stroke-miterlimit="10" d="M604.8,700.1c0,0,19.8,41,64.4,88.6"
	/>
<path opacity="0.15" fill="none" stroke="#FFFFFF" stroke-width="3" stroke-miterlimit="10" d="M1529.9,2011.3
	c0,0-1015.4-945.8-1047.1-1446.1"/>
<path opacity="0.15" fill="none" stroke="#FFFFFF" stroke-width="3" stroke-miterlimit="10" d="M1529.9,1645.4
	c0,0-905.4-535.5-1042.5-1081.5"/>
<path opacity="0.15" fill="none" stroke="#FFFFFF" stroke-width="3" stroke-miterlimit="10" d="M878.4,765.3
	c0,0,300.2-37.8,519.5,55.1"/>
<circle opacity="0.15" fill="none" stroke="#FFFFFF" stroke-width="3" stroke-miterlimit="10" cx="1010.8" cy="399.5" r="25.6"/>
<circle opacity="0.15" fill="none" stroke="#FFFFFF" stroke-width="3" stroke-miterlimit="10" cx="1087.1" cy="272.8" r="25.6"/>
<circle opacity="0.15" fill="none" stroke="#FFFFFF" stroke-width="3" stroke-miterlimit="10" cx="819.3" cy="426.9" r="17.3"/>
<circle opacity="0.15" fill="none" stroke="#FFFFFF" stroke-width="3" stroke-miterlimit="10" cx="918.3" cy="262.9" r="17.3"/>
<circle opacity="0.15" fill="none" stroke="#FFFFFF" stroke-width="3" stroke-miterlimit="10" cx="1079.2" cy="534.2" r="17.3"/>
<circle opacity="0.15" fill="none" stroke="#FFFFFF" stroke-width="3" stroke-miterlimit="10" cx="1022.3" cy="699" r="17.3"/>
<circle opacity="0.15" fill="none" stroke="#FFFFFF" stroke-width="3" stroke-miterlimit="10" cx="466.5" cy="795.5" r="17.3"/>
<circle opacity="0.15" fill="none" stroke="#FFFFFF" stroke-width="3" stroke-miterlimit="10" cx="1185" cy="674.6" r="25.6"/>
<circle opacity="0.15" fill="none" stroke="#FFFFFF" stroke-width="3" stroke-miterlimit="10" cx="1252" cy="568" r="25.6"/>
<circle opacity="0.15" fill="none" stroke="#FFFFFF" stroke-width="3" stroke-miterlimit="10" cx="1425.5" cy="831.5" r="25.6"/>
<circle opacity="0.15" fill="none" stroke="#FFFFFF" stroke-width="3" stroke-miterlimit="10" cx="945.3" cy="524.1" r="25.6"/>
<circle opacity="0.15" fill="none" stroke="#FFFFFF" stroke-width="3" stroke-miterlimit="10" cx="683.2" cy="810.6" r="25.6"/>
<circle opacity="0.15" fill="none" stroke="#FFFFFF" stroke-width="3" stroke-miterlimit="10" cx="475.8" cy="532.7" r="33.2"/>
<circle opacity="0.15" fill="none" stroke="#FFFFFF" stroke-width="3" stroke-miterlimit="10" cx="853.8" cy="772.5" r="25.6"/>
<circle opacity="0.15" fill="none" stroke="#FFFFFF" stroke-width="3" stroke-miterlimit="10" cx="853.8" cy="772.5" r="25.6"/>
<path opacity="0.15" fill="none" stroke="#FFFFFF" stroke-width="3" stroke-miterlimit="10" d="M1074.5,295.5
	c0,0-43.1,62.4-52.2,81.2"/>
<path opacity="0.15" fill="none" stroke="#FFFFFF" stroke-width="3" stroke-miterlimit="10" d="M996.2,420.5c0,0-31.1,58.6-40.5,78.7
	"/>
<rect x="838.4" y="633.2" opacity="0.15" fill="none" stroke="#FFFFFF" stroke-width="3" stroke-miterlimit="10" width="110.9" height="40.3"/>
<rect x="383.6" y="414.6" opacity="0.15" fill="none" stroke="#FFFFFF" stroke-width="3" stroke-miterlimit="10" width="83.2" height="30.2"/>
<rect x="383.6" y="457.6" opacity="0.15" fill="none" stroke="#FFFFFF" stroke-width="3" stroke-miterlimit="10" width="83.2" height="30.2"/>
<rect x="383.6" y="373" opacity="0.15" fill="none" stroke="#FFFFFF" stroke-width="3" stroke-miterlimit="10" width="83.2" height="30.2"/>
<rect x="352.7" y="258" opacity="0.15" fill="none" stroke="#FFFFFF" stroke-width="3" stroke-miterlimit="10" width="110.9" height="40.3"/>
<path opacity="0.15" fill="none" stroke="#FFFFFF" stroke-width="3" stroke-miterlimit="10" d="M883.7,673.5c0,0-15.8,41.8-23.8,73.4
	"/>
<line opacity="0.15" fill="none" stroke="#FFFFFF" stroke-width="3" stroke-miterlimit="10" x1="897.4" y1="633.2" x2="932.9" y2="546.4"/>
<path opacity="0.15" fill="none" stroke="#FFFFFF" stroke-width="3" stroke-miterlimit="10" d="M838.4,425.1
	c0,0,205.9-20.2,394.6,124.6"/>
<path opacity="0.15" fill="none" stroke="#FFFFFF" stroke-width="3" stroke-miterlimit="10" d="M1105.2,291.2
	c0,0,84.1,155,79.9,357.8"/>
<path opacity="0.15" fill="none" stroke="#FFFFFF" stroke-width="3" stroke-miterlimit="10" d="M1092.2,546.4c0,0,46.1,28,80.6,103.3
	"/>
<path opacity="0.15" fill="none" stroke="#FFFFFF" stroke-width="3" stroke-miterlimit="10" d="M1022.4,613.1
	c0,0,68.3,1.1,141.4,44.3"/>
<path opacity="0.15" fill="none" stroke="#FFFFFF" stroke-width="3" stroke-miterlimit="10" d="M1035.6,687.6
	c0,0,47.5-20.5,123.8-18.4"/>
<path opacity="0.15" fill="none" stroke="#FFFFFF" stroke-width="3" stroke-miterlimit="10" d="M503.7,513.7c0,0,124.2-68,297-84.2"
	/>
<path opacity="0.15" fill="none" stroke="#FFFFFF" stroke-width="3" stroke-miterlimit="10" d="M501.9,510.8
	c0,0,708.8-572.4,1488.5,267.5"/>
<path opacity="0.15" fill="none" stroke="#FFFFFF" stroke-width="3" stroke-miterlimit="10" d="M709.2,803.8
	c0,0,13.9-10.5,117.6-30.6"/>
<path opacity="0.15" fill="none" stroke="#FFFFFF" stroke-width="3" stroke-miterlimit="10" d="M1.5,1406.9
	c0,0,190.5-642,444.1-860.5"/>
<path opacity="0.15" fill="none" stroke="#FFFFFF" stroke-width="3" stroke-miterlimit="10" d="M1.5,2011.3
	c0,0,144-955.5,454.9-1450.7"/>
<path opacity="0.15" fill="none" stroke="#FFFFFF" stroke-width="3" stroke-miterlimit="10" d="M465.8,778.3c0,0-9-74.8,2.9-212.3"/>
<path opacity="0.15" fill="none" stroke="#FFFFFF" stroke-width="3" stroke-miterlimit="10" d="M147,2044.3
	c0,0,63-847.5,314.1-1481.6"/>
<path opacity="0.15" fill="none" stroke="#FFFFFF" stroke-width="3" stroke-miterlimit="10" d="M1408.1,812.9
	c0,0-55.2-92.7-198.5-131.1"/>
<path opacity="0.15" fill="none" stroke="#FFFFFF" stroke-width="3" stroke-miterlimit="10" d="M1269.3,582.8
	c0,0,83.2,59.8,145.8,225.4"/>
<path opacity="0.15" fill="none" stroke="#FFFFFF" stroke-width="3" stroke-miterlimit="10" d="M1191.1,649.7c0,0,26-49.3,41.9-60.8"
	/>
<path opacity="0.15" fill="none" stroke="#FFFFFF" stroke-width="3" stroke-miterlimit="10" d="M415.6,298.4
	c0,0,205.5,187.6,267.6,486.7"/>
<path opacity="0.15" fill="none" stroke="#FFFFFF" stroke-width="3" stroke-miterlimit="10" d="M386.4,258
	C386.4,258,216,58.4,1.5,1.4"/>
<rect x="959.9" y="587.3" transform="matrix(0.7071 -0.7071 0.7071 0.7071 -144.6629 876.129)" opacity="0.15" fill="none" stroke="#FFFFFF" stroke-width="3" stroke-miterlimit="10" width="50.7" height="50.7"/>
<path opacity="0.15" fill="none" stroke="#FFFFFF" stroke-width="3" stroke-miterlimit="10" d="M463,278.2c0,0,319-4.1,524.9,109.9"
	/>
<polyline opacity="0.15" fill="none" stroke="#FFFFFF" stroke-width="3" stroke-miterlimit="10" points="359.9,297.8 359.9,473.3 
	383.4,473.3 "/>
<line opacity="0.15" fill="none" stroke="#FFFFFF" stroke-width="3" stroke-miterlimit="10" x1="383.4" y1="390.3" x2="360.4" y2="390.3"/>
<line opacity="0.15" fill="none" stroke="#FFFFFF" stroke-width="3" stroke-miterlimit="10" x1="383.4" y1="430.3" x2="360.4" y2="430.3"/>
<path opacity="0.15" fill="none" stroke="#FFFFFF" stroke-width="3" stroke-miterlimit="10" d="M932.5,272.8
	c0,0,32.8,27.6,67.4,102.9"/>
<path opacity="0.15" fill="none" stroke="#FFFFFF" stroke-width="3" stroke-miterlimit="10" d="M831.5,414.6c0,0,78.6-21.5,155-19.4"
	/>
</svg>
