<?xml version="1.0" encoding="utf-8"?>
<!-- Generator: Adobe Illustrator 22.1.0, SVG Export Plug-In . SVG Version: 6.00 Build 0)  -->
<svg version="1.1" id="Layer_1" xmlns="http://www.w3.org/2000/svg" xmlns:xlink="http://www.w3.org/1999/xlink" x="0px" y="0px"
	 viewBox="0 0 295.8 129.2" enable-background="new 0 0 295.8 129.2" xml:space="preserve">
<rect width="295.8" height="129.2"/>
<g>
	<path fill="#FFFFFF" d="M76.4,69.3v-35l-2.8,7.5l-11,27.5h-8.8L42.9,41.7l-2.7-7.4v35.1H27.7V17.7h18.4l10.6,27.8l2,5.6l2-5.5
		l10.5-27.9h18.6v51.6H76.4z"/>
	<path fill="#FFFFFF" d="M100.3,69.3V17.7H114v51.6H100.3z"/>
	<path fill="#FFFFFF" d="M160.6,69.3l-19.4-25.4l-3.9-5.3v30.7h-12.8V17.7h11.8l19,25.6l3.8,5.2V17.7h12.8v51.6H160.6z"/>
	<path fill="#FFFFFF" d="M207.6,28.6v40.7h-13.7V28.6h-16.4V17.7H224v10.8H207.6z"/>
	<path fill="#FFFFFF" d="M243.5,58.3h24.3v11h-40.8l0-7.3l24.1-33.8h-23V17.7h39.7v6.4L243.5,58.3z"/>
</g>
<g>
	<path fill="#FFFFFF" d="M100.5,89.3c-1.4-3-3-4.2-6-4.2c-4.2,0-6.3,4.2-6.3,10.8c0,6.3,2.4,10.2,6.3,10.2c3.7,0,6.1-2.5,6.2-5.9
		h-5.7v-4.8h11.1v15.1h-4.1v-3.1c-2.4,2.6-4.6,3.5-7.8,3.5c-8.1,0-11.9-6.4-11.9-14.9c0-7.6,2.9-15.8,12.4-15.8
		c5.9,0,9.4,3.2,10.8,7.6L100.5,89.3z"/>
	<path fill="#FFFFFF" d="M117.8,93.8h4.2c4.5,0,5.8-1.4,5.8-4.2c0-2.8-1.7-4.2-4.8-4.2h-5.2V93.8z M112.1,110.5V80.7H124
		c6.8,0,9.5,3.9,9.5,8.8c0,3.7-1.8,6.6-5.5,7.7l6.6,13.3h-6.3l-5.6-12.1h-4.9v12.1H112.1z"/>
	<path fill="#FFFFFF" d="M150.2,85.1c-4.7,0-6.8,3.6-6.8,10.5c-0.1,7,2.1,10.5,6.8,10.5c4.7,0,6.8-3.6,6.8-10.5
		C157,88.6,154.8,85.1,150.2,85.1 M150.2,110.9c-8.1,0-12.5-5.6-12.5-15.3c0-9.7,4.4-15.3,12.5-15.3c8.1,0,12.5,5.6,12.5,15.3
		C162.7,105.4,158.3,110.9,150.2,110.9"/>
	<path fill="#FFFFFF" d="M184.6,80.7h5.7v18.7c0,8.7-5.4,11.6-11.4,11.6c-6.1,0-11.4-2.9-11.4-11.6V80.7h5.7v18.9
		c0,4.8,1.9,6.5,5.7,6.5c3.8,0,5.7-1.7,5.7-6.5V80.7z"/>
	<path fill="#FFFFFF" d="M202.3,93.8h4.5c4.3,0,5.5-1.6,5.5-4.3c0-2.6-1.2-4.3-5.5-4.3h-4.5V93.8z M196.6,110.5V80.7h10.9
		c6.4,0,10.5,2.7,10.5,8.9c0,6.2-4.1,8.9-10.5,8.9h-5.2v12.1H196.6z"/>
</g>
</svg>
