<?xml version="1.0" encoding="utf-8"?>
<!-- Generator: Adobe Illustrator 17.0.0, SVG Export Plug-In . SVG Version: 6.00 Build 0)  -->
<!DOCTYPE svg PUBLIC "-//W3C//DTD SVG 1.1//EN" "http://www.w3.org/Graphics/SVG/1.1/DTD/svg11.dtd">
<svg version="1.1" id="Layer_1" xmlns="http://www.w3.org/2000/svg" xmlns:xlink="http://www.w3.org/1999/xlink" x="0px" y="0px"
	 width="323.744px" height="187px" viewBox="0 0 323.744 187" enable-background="new 0 0 323.744 187" xml:space="preserve">
<rect x="-1" y="-1" fill="#6D6E71" width="324.744" height="188"/>
<g>
	<path fill="#FFFFFF" d="M90.498,83V48.012l-2.786,7.509L76.72,83h-8.824L56.981,55.365l-2.709-7.431V83H41.809V31.446h18.423
		l10.605,27.789l2.013,5.574l2.012-5.496l10.45-27.867h18.578V83H90.498z"/>
	<path fill="#FFFFFF" d="M114.419,83V31.446h13.702V83H114.419z"/>
	<path fill="#FFFFFF" d="M174.72,83l-19.352-25.39l-3.947-5.264V83h-12.773V31.446h11.843l18.965,25.622l3.793,5.187V31.446h12.773
		V83H174.72z"/>
	<path fill="#FFFFFF" d="M221.642,42.284V83H207.94V42.284h-16.41V31.446h46.521v10.838H221.642z"/>
	<path fill="#FFFFFF" d="M257.608,72.009h24.344V83h-40.801l-0.023-7.312l24.145-33.792h-22.988v-10.45h39.697v6.358L257.608,72.009
		z"/>
</g>
<g>
	<path fill="#FFFFFF" d="M115.621,100.675c-1.363-2.973-3.013-4.213-5.988-4.213c-4.212,0-6.275,4.213-6.275,10.82
		c0,6.277,2.353,10.24,6.317,10.24c3.716,0,6.112-2.479,6.235-5.904h-5.657v-4.791h11.149v15.072h-4.129v-3.057
		c-2.395,2.645-4.625,3.469-7.763,3.469c-8.094,0-11.851-6.441-11.851-14.865c0-7.598,2.891-15.775,12.43-15.775
		c5.947,0,9.416,3.223,10.82,7.6L115.621,100.675z"/>
	<path fill="#FFFFFF" d="M132.881,105.134h4.211c4.461,0,5.824-1.404,5.824-4.211c0-2.809-1.693-4.213-4.832-4.213h-5.203V105.134z
		 M127.182,121.899V92.085h11.895c6.771,0,9.497,3.924,9.538,8.838c0.041,3.674-1.816,6.646-5.452,7.68l6.567,13.297h-6.319
		l-5.615-12.141h-4.914v12.141H127.182z"/>
	<path fill="#FFFFFF" d="M165.255,96.464c-4.666,0-6.812,3.551-6.812,10.527c-0.084,6.98,2.105,10.531,6.812,10.531
		c4.666,0,6.814-3.551,6.814-10.531C172.069,100.015,169.921,96.464,165.255,96.464 M165.255,122.312
		c-8.135,0-12.512-5.574-12.512-15.32c0-9.744,4.377-15.318,12.512-15.318c8.135,0,12.512,5.574,12.512,15.318
		C177.767,116.737,173.39,122.312,165.255,122.312"/>
	<path fill="#FFFFFF" d="M199.692,92.085h5.699v18.666c0,8.711-5.369,11.562-11.439,11.562c-6.07,0-11.438-2.852-11.438-11.562
		V92.085h5.697v18.912c0,4.832,1.9,6.525,5.74,6.525c3.842,0,5.74-1.693,5.74-6.525V92.085z"/>
	<path fill="#FFFFFF" d="M217.364,105.216h4.543c4.295,0,5.492-1.609,5.492-4.252c0-2.645-1.197-4.254-5.492-4.254h-4.543V105.216z
		 M211.667,121.899V92.085h10.902c6.439,0,10.529,2.684,10.529,8.879c0,6.193-4.09,8.879-10.529,8.879h-5.205v12.057H211.667z"/>
</g>
<g>
	<path fill="#FFFFFF" d="M52.666,157.403c-0.675,2.827-2.237,4.769-5.36,4.769c-3.419,0-5.825-2.49-5.825-7.829
		c0-4.959,2.152-7.829,5.825-7.829c2.828,0,4.474,1.645,5.149,4.432l-1.562,0.464c-0.549-2.152-1.519-3.461-3.799-3.461
		c-2.194,0-3.925,2.026-3.925,6.395c0,4.41,1.73,6.395,4.263,6.395c2.342,0,3.25-1.773,3.714-3.63L52.666,157.403z"/>
	<path fill="#FFFFFF" d="M57.391,146.725v15.236h-1.519v-15.236H57.391z"/>
	<path fill="#FFFFFF" d="M60.978,153.098c0.697-1.267,2.047-2.321,4.115-2.321c1.857,0,3.798,0.887,3.798,3.292v5.529
		c0,1.202,0.106,1.794,0.253,2.363h-1.562l-0.169-1.52c-0.76,0.845-1.983,1.73-3.629,1.73c-1.688,0-3.124-1.013-3.124-3.018
		c0-2.405,1.836-3.608,6.711-4.474v-0.592c0-1.455-0.95-2.004-2.258-2.004c-1.688,0-2.511,0.971-2.807,1.709L60.978,153.098z
		 M67.372,156.031c-3.482,0.612-5.191,1.624-5.191,3.144c0,1.014,0.971,1.689,1.815,1.689c1.097,0,2.49-0.803,3.376-1.816V156.031z"
		/>
	<path fill="#FFFFFF" d="M72.014,150.987h1.52v2.174h0.042c0.844-1.498,1.752-2.343,3.566-2.343v1.52
		c-1.899,0.042-2.891,1.288-3.608,3.546v6.077h-1.52V150.987z"/>
	<path fill="#FFFFFF" d="M81.467,146.514v1.815h-1.519v-1.815H81.467z M79.948,150.987h1.519v10.974h-1.519V150.987z"/>
	<path fill="#FFFFFF" d="M86.024,150.987v-3.608h1.519v3.608h2.533v1.309h-2.533v7.809c0,0.506,0.359,0.76,1.245,0.76
		c0.506,0,0.95-0.043,1.351-0.105v1.244c-0.274,0.084-0.886,0.169-1.772,0.169c-1.646,0-2.342-0.422-2.342-1.815v-8.061H84.23
		v-1.309H86.024z"/>
	<path fill="#FFFFFF" d="M100.12,150.987l-3.862,11.944c-0.802,2.448-2.258,3.081-3.693,3.081c-0.506,0-0.802-0.084-1.097-0.127
		v-1.244c0.211,0.02,0.485,0.062,0.823,0.062c0.929,0,2.343-0.211,2.87-2.617l-3.819-11.1h1.604l2.955,8.378h0.042l2.575-8.378
		H100.12z"/>
	<path fill="#FFFFFF" d="M110.985,146.514v1.815h-1.519v-1.815H110.985z M109.466,150.987h1.519v10.974h-1.519V150.987z"/>
	<path fill="#FFFFFF" d="M116.768,150.987v1.478h0.042c0.865-0.971,2.005-1.689,3.25-1.689c1.625,0,3.165,0.844,3.165,3.207v7.978
		h-1.52v-7.935c0-1.456-0.696-1.941-1.794-1.941c-1.14,0-2.447,0.928-3.144,1.667v8.209h-1.52v-10.974H116.768z"/>
	<path fill="#FFFFFF" d="M133.141,153.098c0.696-1.267,2.047-2.321,4.115-2.321c1.856,0,3.798,0.887,3.798,3.292v5.529
		c0,1.202,0.105,1.794,0.254,2.363h-1.562l-0.168-1.52c-0.76,0.845-1.984,1.73-3.63,1.73c-1.688,0-3.123-1.013-3.123-3.018
		c0-2.405,1.836-3.608,6.71-4.474v-0.592c0-1.455-0.949-2.004-2.258-2.004c-1.688,0-2.511,0.971-2.807,1.709L133.141,153.098z
		 M139.534,156.031c-3.481,0.612-5.191,1.624-5.191,3.144c0,1.014,0.972,1.689,1.816,1.689c1.098,0,2.49-0.803,3.376-1.816V156.031z
		"/>
	<path fill="#FFFFFF" d="M157.259,154.259c-0.422-1.33-1.287-2.174-2.596-2.174c-1.878,0-2.976,1.604-2.976,4.389
		c0,2.786,1.098,4.391,2.976,4.391c1.393,0,2.174-0.465,3.018-2.026l1.225,0.548c-1.098,1.857-2.068,2.786-4.242,2.786
		c-2.743,0-4.495-2.152-4.495-5.698c0-3.545,1.752-5.697,4.495-5.697c2.258,0,3.313,1.266,4.01,2.976L157.259,154.259z"/>
	<path fill="#FFFFFF" d="M165.361,162.172c-2.996,0-4.494-2.532-4.494-5.698c0-3.165,1.498-5.697,4.494-5.697
		c2.997,0,4.495,2.532,4.495,5.697C169.856,159.64,168.358,162.172,165.361,162.172z M165.361,152.085
		c-1.814,0-2.976,1.561-2.976,4.389c0,2.828,1.161,4.391,2.976,4.391c1.815,0,2.976-1.562,2.976-4.391
		C168.337,153.646,167.177,152.085,165.361,152.085z"/>
	<path fill="#FFFFFF" d="M172.577,161.961v-10.974h1.52v1.456l0.084-0.085c0.929-1.033,2.132-1.582,3.187-1.582
		c1.414,0,2.406,0.718,2.807,1.73c0.971-1.034,2.195-1.73,3.482-1.73c1.456,0,3.018,0.611,3.018,3.334v7.851h-1.52v-7.851
		c0-1.477-0.738-2.025-1.709-2.025c-1.351,0-2.237,0.887-3.061,1.688v8.188h-1.519v-7.851c0-1.477-0.739-2.025-1.71-2.025
		c-1.351,0-2.236,0.887-3.059,1.688v8.188H172.577z"/>
	<path fill="#FFFFFF" d="M190.491,166.013v-15.025h1.519v1.287h0.043c0.569-0.822,1.794-1.498,2.849-1.498
		c1.941,0,4.495,1.309,4.495,5.697c0,4.264-2.554,5.698-4.411,5.698c-1.033,0-2.047-0.527-2.891-1.224l-0.085-0.043v5.107H190.491z
		 M192.01,159.345c0.823,0.906,1.857,1.52,2.765,1.52c1.773,0,3.102-1.161,3.102-4.475c0-2.785-1.203-4.305-3.102-4.305
		c-0.971,0-1.688,0.422-2.765,1.476V159.345z"/>
	<path fill="#FFFFFF" d="M204.27,146.725v15.236h-1.52v-15.236H204.27z"/>
	<path fill="#FFFFFF" d="M216.488,159.618c-0.718,1.246-1.73,2.554-4.221,2.554c-2.448,0-4.77-1.689-4.77-5.698
		c0-3.545,1.773-5.697,4.475-5.697c2.278,0,4.178,1.477,4.178,4.98v1.013h-7.133c0,2.405,1.436,4.095,3.25,4.095
		c1.35,0,2.406-0.719,3.039-1.857L216.488,159.618z M214.631,155.462c0-2.026-0.971-3.377-2.616-3.377
		c-1.836,0-2.828,1.351-2.955,3.377H214.631z"/>
	<path fill="#FFFFFF" d="M222.016,154.892l2.301-3.904h1.709l-3.081,5.213l3.566,5.761h-1.751l-2.744-4.495l-2.658,4.495h-1.71
		l3.461-5.761l-3.207-5.213h1.709L222.016,154.892z"/>
	<path fill="#FFFFFF" d="M233.936,150.987h1.54l2.216,8.441h0.042l2.153-8.441h1.54l2.194,8.483h0.043l2.131-8.483h1.541
		l-2.934,10.974h-1.54l-2.195-8.483h-0.042l-2.174,8.483h-1.54L233.936,150.987z"/>
	<path fill="#FFFFFF" d="M253.159,162.172c-2.996,0-4.494-2.532-4.494-5.698c0-3.165,1.498-5.697,4.494-5.697
		c2.997,0,4.495,2.532,4.495,5.697C257.654,159.64,256.156,162.172,253.159,162.172z M253.159,152.085
		c-1.814,0-2.976,1.561-2.976,4.389c0,2.828,1.161,4.391,2.976,4.391c1.815,0,2.976-1.562,2.976-4.391
		C256.135,153.646,254.975,152.085,253.159,152.085z"/>
	<path fill="#FFFFFF" d="M260.102,150.987h1.52v2.174h0.042c0.844-1.498,1.751-2.343,3.566-2.343v1.52
		c-1.899,0.042-2.892,1.288-3.608,3.546v6.077h-1.52V150.987z"/>
	<path fill="#FFFFFF" d="M269.555,146.725v15.236h-1.52v-15.236H269.555z"/>
	<path fill="#FFFFFF" d="M281.814,146.725v12.831c0,0.801-0.042,1.604,0.085,2.405h-1.394l-0.211-1.076
		c-0.506,0.696-1.582,1.287-2.891,1.287c-1.941,0-4.495-1.308-4.495-5.698c0-4.262,2.554-5.697,4.41-5.697
		c1.034,0,2.047,0.527,2.892,1.225l0.084,0.041v-5.317H281.814z M280.294,153.605c-0.822-0.908-1.856-1.52-2.765-1.52
		c-1.772,0-3.102,1.16-3.102,4.474c0,2.786,1.203,4.306,3.102,4.306c0.972,0,1.688-0.423,2.765-1.479V153.605z"/>
</g>
<rect x="41.809" y="135.454" fill="#FFFFFF" width="239.597" height="0.938"/>
</svg>
